<svg version="1.1" id="Layer_1" xmlns="http://www.w3.org/2000/svg" x="0px" y="0px" viewBox="0 0 600 600" style="enable-background:new 0 0 600 600" xml:space="preserve"><style>.st0{fill:#424A52}</style><g id="g24" transform="matrix(1.25,0,0,-1.25,391.45419,547.32524)"><path id="path26" class="st0" d="M-40.1,167.8v3.3h-7.8v-2.8h4.6v-1.2c0-1.4-0.3-2.5-1.1-3.4c-0.8-1-2.1-1.5-3.5-1.5 c-1.3,0-2.4,0.5-3.2,1.3c-1.1,1.1-1.3,2.4-1.3,6.7c0,4.3,0.2,5.5,1.3,6.7c0.8,0.8,1.9,1.3,3.2,1.3c2.4,0,4-1.4,4.5-3.7h3.3 c-0.6,3.7-3.3,6.7-7.8,6.7c-2.3,0-4.2-0.8-5.6-2.3c-2.1-2.1-2.1-4.5-2.1-8.6s0-6.5,2.1-8.6c1.5-1.5,3.4-2.3,5.6-2.3 c2.3,0,4.3,0.7,5.9,2.4C-40.6,163.2-40.1,165-40.1,167.8"/></g><g id="g28" transform="matrix(1.25,0,0,-1.25,401.46256,543.92424)"><path id="path30" class="st0" d="M-27.9,171.9c0-2.1-1.5-3.3-3.6-3.3h-4.8v6.7h4.8C-29.4,175.3-27.9,174-27.9,171.9 M-24,156.7 l-4.9,9.5c2.4,0.7,4.3,2.6,4.3,5.7c0,3.6-2.6,6.3-6.7,6.3h-8.3v-21.5h3.3v9h4.1l4.5-9H-24z"/></g><g id="g32" transform="matrix(1.25,0,0,-1.25,412.90718,546.12674)"><path id="path34" class="st0" d="M-14.1,169.2c0-4.3-0.2-5.5-1.3-6.7c-0.8-0.8-1.9-1.3-3.2-1.3c-1.3,0-2.4,0.5-3.2,1.3 c-1.1,1.1-1.3,2.4-1.3,6.7s0.2,5.5,1.3,6.7c0.8,0.8,1.9,1.3,3.2,1.3c1.3,0,2.4-0.5,3.2-1.3C-14.3,174.7-14.1,173.5-14.1,169.2 M-10.8,169.2c0,4.1,0.1,6.5-2,8.6c-1.5,1.5-3.4,2.3-5.7,2.3s-4.2-0.8-5.6-2.3c-2.1-2.1-2.1-4.5-2.1-8.6s0-6.5,2.1-8.6 c1.5-1.5,3.3-2.3,5.6-2.3s4.2,0.8,5.7,2.3C-10.8,162.7-10.8,165.1-10.8,169.2"/></g><g id="g36_1_" transform="matrix(1.25,0,0,-1.25,426.21256,547.86474)"><path id="path38" class="st0" d="M2.1,167.1v14.2h-3.3v-14.1c0-2.9-1.8-4.6-4.5-4.6c-2.7,0-4.4,1.8-4.4,4.6v14.1h-3.3v-14.2 c0-4.4,3.3-7.4,7.7-7.4S2.1,162.7,2.1,167.1"/></g><g id="g40" transform="matrix(1.25,0,0,-1.25,436.47381,544.02949)"><path id="path42" class="st0" d="M14.5,171.8c0-2.3-1.5-3.6-3.8-3.6H6v7.1h4.7C13,175.3,14.5,174,14.5,171.8 M17.7,171.8 c0,3.7-2.7,6.5-6.9,6.5H2.7v-21.5H6v8.4h4.9C15.1,165.2,17.7,168,17.7,171.8"/></g><g id="g44" transform="matrix(1.25,0,0,-1.25,448.66956,551.46037)"><path id="path46" class="st0" d="M29.3,162.7v2.9H18.8v6.5h8.9v2.9h-8.9v6.3h10.5v2.9H15.6v-21.5H29.3z"/></g><g id="g50_1_"><g id="g56_1_" transform="translate(514.9143,94.3715)"><path id="path58_1_" class="st0" d="M12.2,245.6H8.1c-0.6,2.7-2.5,4.6-5.5,4.6c-1.6,0-3-0.6-4-1.6c-1.3-1.4-1.6-3-1.6-8.4 s0.3-6.9,1.6-8.4c0.9-1,2.4-1.6,4-1.6c3,0,4.8,1.9,5.4,4.6h4.1c-0.9-5.4-4.6-8.3-9.6-8.3c-2.8,0-5.2,1-7,2.9 C-7,232.1-7,235.1-7,240.2s0,8.1,2.6,10.8c1.8,1.8,4.3,2.9,7,2.9C7.5,253.9,11.3,251,12.2,245.6"/></g><g id="g60_1_" transform="translate(522.8493,96.1452)"><path id="path62_2_" class="st0" d="M29.2,238.3c0,3.7,0,6.6-1.4,8.1c-1.1,1.2-2.6,1.8-4.6,1.8h-4.9v-19.5h4.9 c1.9,0,3.4,0.6,4.6,1.8C29.2,232.1,29.2,234.6,29.2,238.3 M33.3,238.3c0-3.9,0.2-7.8-2.7-10.7c-1.7-1.7-4.1-2.5-6.9-2.5h-9.4 v26.8h9.4c2.8,0,5.2-0.8,6.9-2.5C33.5,246.5,33.3,242.2,33.3,238.3"/></g><g id="g64_2_" transform="translate(533.3701,95.1268)"><path id="path66_2_" class="st0" d="M51.8,242.5v-4.1H42v3.5h5.7v1.5c0,1.7-0.4,3.1-1.4,4.2c-1.1,1.2-2.6,1.9-4.4,1.9 c-1.6,0-3-0.6-4-1.6c-1.3-1.4-1.6-3-1.6-8.4c0-5.4,0.3-6.9,1.6-8.3c0.9-1,2.4-1.7,4-1.7c3,0,5,1.7,5.7,4.7h4.1 c-0.8-4.6-4.1-8.3-9.8-8.3c-2.9,0-5.2,1-7,2.9c-2.6,2.6-2.6,5.6-2.6,10.8s0,8.1,2.6,10.8c1.8,1.8,4.3,2.9,7,2.9 c2.8,0,5.4-0.9,7.4-3.1C51.1,248.2,51.8,246,51.8,242.5"/></g><g id="g68_1_" transform="translate(443.9455,110.5509)"><path id="path70_1_" class="st0" d="M-139.9,178.6c0,2.1-1.7,3.8-3.8,3.8s-3.8-1.7-3.8-3.8s1.7-3.8,3.8-3.8 S-139.9,176.5-139.9,178.6"/></g><g id="g72_1_" transform="translate(400.6015,113.1171)"><path id="path74_1_" class="st0" d="M-232.8,168c0,2.1-1.7,3.8-3.8,3.8c-2.1,0-3.8-1.7-3.8-3.8s1.7-3.8,3.8-3.8 C-234.5,164.1-232.8,165.8-232.8,168"/></g><g id="g76_1_" transform="translate(374.1123,110.1045)"><path id="path78_1_" class="st0" d="M-289.6,180.4c0,2.1-1.7,3.8-3.8,3.8c-2.1,0-3.8-1.7-3.8-3.8c0-2.1,1.7-3.8,3.8-3.8 C-291.3,176.6-289.6,178.3-289.6,180.4"/></g></g><g id="g80_1_" transform="matrix(1.25,0,0,-1.25,479.64856,531.36887)"><path id="path82_1_" class="st0" d="M66.8,187.1v36.3h-7.6v-36.3v-7.5v-0.2h25.2v7.6H66.8z"/></g><g id="g86"><g id="g92_1_" transform="translate(354.4032,119.788)"><path id="path94_1_" class="st0" d="M-331.8,140.3c-5.2,5-7.7,11.5-7.7,19.5c0,8.1,2.6,14.9,7.8,20.2c5.2,5.3,11.8,8,19.8,8h27 v-9.6h-27c-5.3,0-9.6-1.6-13-4.9c-3.4-3.3-5.1-7.6-5.1-12.8c0-5.3,1.7-9.7,5.1-13.1c3.4-3.4,7.7-5.1,13-5.1h27v-9.6h-27 C-320,132.9-326.6,135.4-331.8,140.3"/></g><g id="g96_1_" transform="translate(389.8227,120.0963)"><path id="path98_1_" class="st0" d="M-255.9,139c-1.6,1.5-2.9,3.1-3.9,4.9c-0.9-1.4-2-2.6-3.3-3.8c-5.2-4.9-11.8-7.4-19.9-7.4 h-30.9v29.9h9.4v-20.4h21.5c5.3,0,9.6,1.7,13,5.1c3.4,3.4,5.1,7.7,5.1,13c0,5.3-1.7,9.5-5.1,12.8c-3.4,3.3-7.7,4.9-13,4.9h-17.8 l0,0h-13.1v9.6h30.9c8,0,14.6-2.7,19.8-8c1.6-1.6,2.9-3.4,4-5.2c1,1.5,2.1,2.8,3.4,4.1c5.2,5.3,11.8,8,19.8,8h34.9v-30.3h-5.2 h-4.4h-7.4v9.6h7.4V177H-236c-5.3,0-9.6-1.6-13-4.9c-3.4-3.3-5.1-7.5-5.1-12.8c0-5.3,1.7-9.7,5.1-13c3.4-3.4,7.7-5.1,13-5.1h34.9 v-9.5H-236C-244.1,131.6-250.7,134.1-255.9,139"/></g><g id="g100" transform="translate(446.3422,121.8655)"><path id="path102" class="st0" d="M-134.7,131.7c-1.5-1.2-2.9-1.8-4.3-1.8c-1.3,0-2.7,0.6-4.3,1.8c-1.3,1.1-2.4,2.2-3.1,3.5 l-29.7,49.5h12.3l24.7-40.6l9.5,15.8l1.3,2.1h-11.4v9.5h17.1l7.9,13.1l12.3,0.1l-29-49.6C-132.4,133.9-133.5,132.7-134.7,131.7"/></g><g id="g104" transform="translate(416.6798,119.8615)"><path id="path106" class="st0" d="M-198.3,140c-5.2,5-7.8,11.5-7.8,19.6c0,8.1,2.6,14.9,7.8,20.2c5.2,5.3,11.8,8,19.8,8h27v-9.6 h-27c-5.3,0-9.6-1.6-13-4.9c-3.4-3.3-5.1-7.6-5.1-12.9c0-5.3,1.7-9.7,5.1-13.1c3.4-3.4,7.7-5.1,13-5.1h27v-9.6h-27 C-186.5,132.6-193.2,135.1-198.3,140"/></g><g id="g108" transform="translate(473.9225,120.8581)"><path id="path110" class="st0" d="M-75.6,135.9c-4.3-3.1-10-4.6-17.1-4.6h-32.9v54.9h9.6v-15.4h19.8c0,0,9-0.3,12.9-1.1 c4.6-1.2,8.2-3.4,10.9-6.5c2.9-3.3,4.3-7.3,4.3-11.9C-68.2,144.5-70.7,139.4-75.6,135.9 M-82.3,158.9c-2.4,1.6-5.4,2.3-8.9,2.3 h-24.9v-20.4h24.9c8.7,0,13,3.4,13,10.3C-78.2,154.5-79.6,157.1-82.3,158.9"/></g></g><path id="path112_1_" class="st0" d="M410.6,307h9.5v-54.7h-9.5V307z"/><g id="g114_1_" transform="matrix(1.25,0,0,-1.25,446.69293,513.32349)"><path id="path116_1_" class="st0" d="M26.9,209h-43.8v-7.6H0.7V165h7.6v36.3h18.6L26.9,209z"/></g><g id="g120"><g id="g126" transform="translate(510.4993,121.8655)"><path id="path128" class="st0" d="M2.8,131.7c-1.5-1.2-2.9-1.8-4.3-1.8c-1.3,0-2.7,0.6-4.3,1.8c-1.3,1.1-2.4,2.2-3.1,3.5 l-29.7,49.5h12.3l24.7-40.6L7.7,160l1.3,2.1H-2.4v9.5h17.1l7.9,13.1l12.3,0.1l-29-49.6C5.1,133.9,4,132.7,2.8,131.7"/></g><g id="g130" transform="translate(508.1027,110.5509)"><path id="path132_1_" class="st0" d="M-2.4,178.6c0,2.1-1.7,3.8-3.8,3.8c-2.1,0-3.8-1.7-3.8-3.8s1.7-3.8,3.8-3.8 C-4.1,174.8-2.4,176.5-2.4,178.6"/></g></g></svg>