<svg xmlns:xlink="http://www.w3.org/1999/xlink" xmlns="http://www.w3.org/2000/svg" width="252" height="55" viewBox="0 0 252 55" fill="none">
<mask id="mask0_19_2440" style="mask-type:luminance" maskUnits="userSpaceOnUse" x="0" y="0" width="252" height="55">
<path d="M251.85 0.346436H0V54.6864H251.85V0.346436Z" fill="white"/>
</mask>
<g mask="url(#mask0_19_2440)">
<path d="M120.98 52.1465C117.96 50.4565 115.6 48.0465 113.89 44.9265C112.18 41.8065 111.32 38.1965 111.32 34.0765C111.32 29.9565 112.2 26.4265 113.96 23.3065C115.72 20.1865 118.12 17.7965 121.16 16.1265C124.2 14.4565 127.6 13.6265 131.37 13.6265C135.14 13.6265 138.54 14.4565 141.58 16.1265C144.62 17.7965 147.02 20.1765 148.78 23.2765C150.54 26.3665 151.42 29.9765 151.42 34.0865C151.42 38.1965 150.51 41.8165 148.71 44.9365C146.9 48.0565 144.45 50.4665 141.36 52.1565C138.27 53.8465 134.84 54.6965 131.08 54.6965C127.32 54.6965 124 53.8465 120.98 52.1565M137.74 47.2265C139.81 46.1165 141.49 44.4465 142.77 42.2165C144.05 39.9965 144.69 37.2865 144.69 34.0865C144.69 30.8865 144.06 28.1865 142.81 25.9665C141.55 23.7465 139.91 22.0865 137.89 20.9965C135.86 19.9065 133.67 19.3665 131.3 19.3665C128.93 19.3665 126.68 19.9065 124.68 20.9965C122.68 22.0865 121.07 23.7465 119.87 25.9665C118.66 28.1965 118.06 30.8965 118.06 34.0865C118.06 37.2765 118.65 40.0565 119.83 42.2865C121.01 44.5165 122.59 46.1665 124.57 47.2565C126.55 48.3465 128.72 48.8865 131.08 48.8865C133.44 48.8865 135.66 48.3365 137.74 47.2165" fill="white"/>
<path d="M209.01 52.1465C205.99 50.4565 203.63 48.0465 201.92 44.9265C200.21 41.8065 199.35 38.1965 199.35 34.0765C199.35 29.9565 200.23 26.4265 201.99 23.3065C203.75 20.1865 206.15 17.7965 209.19 16.1265C212.23 14.4565 215.63 13.6265 219.4 13.6265C223.17 13.6265 226.57 14.4565 229.61 16.1265C232.65 17.7965 235.05 20.1765 236.81 23.2765C238.57 26.3665 239.45 29.9765 239.45 34.0865C239.45 38.1965 238.54 41.8165 236.74 44.9365C234.93 48.0565 232.48 50.4665 229.39 52.1565C226.3 53.8465 222.87 54.6965 219.11 54.6965C215.35 54.6965 212.03 53.8465 209.01 52.1565M225.77 47.2265C227.84 46.1165 229.52 44.4465 230.8 42.2165C232.08 39.9965 232.72 37.2865 232.72 34.0865C232.72 30.8865 232.09 28.1865 230.84 25.9665C229.58 23.7465 227.94 22.0865 225.92 20.9965C223.89 19.9065 221.7 19.3665 219.33 19.3665C216.96 19.3665 214.71 19.9065 212.71 20.9965C210.71 22.0865 209.1 23.7465 207.9 25.9665C206.69 28.1965 206.09 30.8965 206.09 34.0865C206.09 37.2765 206.68 40.0565 207.86 42.2865C209.04 44.5165 210.62 46.1665 212.6 47.2565C214.58 48.3465 216.75 48.8865 219.11 48.8865C221.47 48.8865 223.69 48.3365 225.77 47.2165" fill="white"/>
<path d="M195.44 0.346436H188.78V18.2964C187.81 17.4564 186.75 16.7164 185.6 16.0864C182.56 14.4164 179.16 13.5864 175.39 13.5864C171.62 13.5864 168.22 14.4164 165.18 16.0864C162.14 17.7564 159.74 20.1464 157.98 23.2664C156.22 26.3864 155.34 29.9764 155.34 34.0364C155.34 38.0964 156.2 41.7664 157.91 44.8864C159.62 48.0064 161.99 50.4164 165 52.1064C168.02 53.7964 171.38 54.6464 175.1 54.6464C178.82 54.6464 182.29 53.7964 185.38 52.1064C188.47 50.4164 190.92 48.0064 192.73 44.8864C194.54 41.7664 195.44 38.1564 195.44 34.0364C195.44 33.8964 195.44 33.7664 195.43 33.6264H195.44V0.346436ZM186.79 42.1664C185.51 44.3964 183.83 46.0564 181.76 47.1764C179.68 48.2864 177.46 48.8464 175.1 48.8464C172.74 48.8464 170.56 48.3064 168.58 47.2164C166.6 46.1264 165.02 44.4764 163.84 42.2464C162.66 40.0264 162.07 37.2864 162.07 34.0464C162.07 30.8064 162.67 28.1464 163.88 25.9164C165.09 23.6964 166.69 22.0364 168.69 20.9464C170.69 19.8564 172.9 19.3164 175.31 19.3164C177.72 19.3164 179.87 19.8564 181.9 20.9464C183.93 22.0364 185.57 23.6964 186.82 25.9164C188.07 28.1464 188.7 30.8464 188.7 34.0464C188.7 37.2464 188.06 39.9464 186.78 42.1664" fill="white"/>
<path d="M107.28 36.6165H75.57C75.81 40.5365 77.15 43.5965 79.59 45.7965C82.03 47.9965 84.98 49.0965 88.46 49.0965C91.31 49.0965 93.68 48.4365 95.59 47.1065C97.5 45.7765 98.84 43.9965 99.61 41.7765H106.7C105.64 45.5965 103.52 48.7065 100.33 51.0965C97.14 53.4865 93.19 54.6865 88.46 54.6865C84.7 54.6865 81.33 53.8365 78.36 52.1465C75.39 50.4565 73.06 48.0465 71.37 44.9265C69.68 41.8065 68.84 38.1965 68.84 34.0765C68.84 29.9565 69.66 26.3665 71.3 23.2665C72.94 20.1665 75.24 17.7865 78.21 16.1165C81.18 14.4465 84.59 13.6165 88.45 13.6165C92.31 13.6165 95.54 14.4365 98.44 16.0865C101.34 17.7265 103.57 19.9965 105.14 22.8665C106.71 25.7465 107.49 28.9965 107.49 32.6265C107.49 33.8865 107.42 35.2165 107.27 36.6165M99.02 24.7565C97.91 22.9465 96.4 21.5665 94.49 20.6265C92.58 19.6865 90.47 19.2165 88.16 19.2165C84.83 19.2165 81.99 20.2765 79.65 22.4065C77.31 24.5365 75.97 27.4865 75.63 31.2565H100.68C100.68 28.7465 100.12 26.5765 99.02 24.7665" fill="white"/>
<path d="M243.67 52.6764C242.73 51.7264 242.25 50.5764 242.25 49.2064C242.25 47.8364 242.72 46.6864 243.67 45.7364C244.61 44.7864 245.77 44.3164 247.13 44.3164C248.49 44.3164 249.56 44.7864 250.47 45.7364C251.39 46.6864 251.85 47.8364 251.85 49.2064C251.85 50.5764 251.39 51.7264 250.47 52.6764C249.55 53.6264 248.44 54.0964 247.13 54.0964C245.82 54.0964 244.61 53.6264 243.67 52.6764Z" fill="white"/>
<path d="M20.36 47.5464C12.72 47.5464 6.53 41.3364 6.53 33.6864V20.1664H20.36V13.6264H6.53V0.346436H0V33.6864C0 44.9564 9.12 54.0864 20.36 54.0864H23.82V47.5464H20.36Z" fill="white"/>
<path d="M65.31 31.4665C65.26 21.8465 57.43 14.0565 47.88 14.0565C43.69 14.0565 39.85 15.5565 36.86 18.0465V3.18652H30.53V54.0965H36.86V30.2865C37.5 24.3565 42.19 20.1865 47.88 20.1865C53.98 20.1865 58.92 24.9765 58.98 31.5765V54.0965H65.31V31.4765V31.4665Z" fill="white"/>
</g>
</svg>