<svg width="115" height="39" viewBox="0 0 115 39" fill="none" xmlns="http://www.w3.org/2000/svg">
<path d="M14.14 0.308001V13.384C14.14 15.6053 13.5333 17.304 12.32 18.48C11.1253 19.656 9.4733 20.244 7.364 20.244C5.124 20.244 3.332 19.6187 1.988 18.368C0.66267 17.1173 0 15.316 0 12.964H5.432C5.4507 14.5133 6.02 15.288 7.14 15.288C8.148 15.288 8.652 14.6533 8.652 13.384V0.308001H14.14ZM26.8796 20.244C25.0316 20.244 23.3329 19.8147 21.7836 18.956C20.2342 18.0787 19.0022 16.8747 18.0876 15.344C17.1916 13.7947 16.7436 12.0493 16.7436 10.108C16.7436 8.1667 17.1916 6.4307 18.0876 4.9C19.0022 3.3507 20.2342 2.1467 21.7836 1.288C23.3329 0.4293 25.0316 0 26.8796 0C28.7462 0 30.4449 0.4293 31.9756 1.288C33.5249 2.1467 34.7476 3.3507 35.6436 4.9C36.5396 6.4307 36.9876 8.1667 36.9876 10.108C36.9876 12.0493 36.5396 13.7947 35.6436 15.344C34.7476 16.8747 33.5249 18.0787 31.9756 18.956C30.4262 19.8147 28.7276 20.244 26.8796 20.244ZM26.8796 15.148C28.2796 15.148 29.3809 14.6907 30.1836 13.776C31.0049 12.8613 31.4156 11.6387 31.4156 10.108C31.4156 8.54 31.0049 7.308 30.1836 6.412C29.3809 5.4973 28.2796 5.04 26.8796 5.04C25.4609 5.04 24.3502 5.4973 23.5476 6.412C22.7449 7.308 22.3436 8.54 22.3436 10.108C22.3436 11.6573 22.7449 12.8893 23.5476 13.804C24.3502 14.7 25.4609 15.148 26.8796 15.148ZM52.0546 9.912C53.212 10.1733 54.1266 10.752 54.7986 11.648C55.4893 12.5253 55.8346 13.5333 55.8346 14.672C55.8346 16.352 55.256 17.668 54.0986 18.62C52.9413 19.572 51.3173 20.048 49.2266 20.048H39.4546V0.308001H48.9186C50.9346 0.308001 52.512 0.756 53.6506 1.652C54.808 2.548 55.3866 3.808 55.3866 5.432C55.3866 6.5893 55.0786 7.56 54.4626 8.344C53.8653 9.1093 53.0626 9.632 52.0546 9.912ZM44.9426 8.148H47.7146C49.096 8.148 49.7866 7.5787 49.7866 6.44C49.7866 5.264 49.096 4.676 47.7146 4.676H44.9426V8.148ZM48.1346 15.624C49.516 15.624 50.2066 15.0453 50.2066 13.888C50.2066 13.2907 50.02 12.8333 49.6466 12.516C49.292 12.1987 48.7786 12.04 48.1066 12.04H44.9426V15.624H48.1346ZM64.2318 15.596H72.4358V20.048H58.0718V15.876L66.1918 4.732H58.0718V0.308001H72.4358V4.48L64.2318 15.596ZM93.3597 0.308001L86.4157 13.776V20.048H80.8997V13.776L73.9557 0.308001H80.2277L83.6997 7.924L87.1717 0.308001H93.3597ZM113.328 20.048H107.84L100.532 9.016V20.048H95.044V0.308001H100.532L107.84 11.48V0.308001H113.328V20.048Z" fill="url(#paint0_linear_812_4)"/>
<path d="M49.9258 23.979C49.9258 24.459 49.8158 24.914 49.5958 25.344C49.3858 25.764 49.0908 26.144 48.7108 26.484C48.3308 26.814 47.8858 27.094 47.3758 27.324C46.8658 27.554 46.3108 27.709 45.7108 27.789C45.8608 28.239 46.0408 28.704 46.2508 29.184C46.4708 29.654 46.7058 30.109 46.9558 30.549C47.2058 30.989 47.4658 31.394 47.7358 31.764C48.0058 32.134 48.2708 32.439 48.5308 32.679C48.4808 32.779 48.4058 32.879 48.3058 32.979C48.2158 33.079 48.1058 33.169 47.9758 33.249C47.8558 33.339 47.7258 33.409 47.5858 33.459C47.4558 33.519 47.3308 33.549 47.2108 33.549C46.9908 33.549 46.7808 33.444 46.5808 33.234C46.3808 33.024 46.1758 32.694 45.9658 32.244C45.7658 31.784 45.5508 31.194 45.3208 30.474C45.1008 29.744 44.8558 28.869 44.5858 27.849C44.4758 27.849 44.3658 27.849 44.2558 27.849C44.1458 27.849 44.0608 27.839 44.0008 27.819C43.9308 27.779 43.8558 27.709 43.7758 27.609C43.5058 28.189 43.2658 28.734 43.0558 29.244C42.8458 29.754 42.6558 30.249 42.4858 30.729C42.3258 31.199 42.1808 31.659 42.0508 32.109C41.9308 32.549 41.8258 32.999 41.7358 33.459C41.3958 33.379 41.1008 33.234 40.8508 33.024C40.6008 32.814 40.3658 32.519 40.1458 32.139C40.1858 32.049 40.2258 31.964 40.2658 31.884C40.3158 31.794 40.3758 31.674 40.4458 31.524C40.5158 31.364 40.6008 31.164 40.7008 30.924C40.8108 30.684 40.9508 30.364 41.1208 29.964C41.3008 29.564 41.5108 29.074 41.7508 28.494C42.0008 27.914 42.3008 27.209 42.6508 26.379C42.8108 26.009 42.9458 25.684 43.0558 25.404C43.1758 25.124 43.2808 24.859 43.3708 24.609C43.4608 24.349 43.5408 24.094 43.6108 23.844C43.6908 23.584 43.7708 23.289 43.8508 22.959C43.3908 23.119 42.9608 23.299 42.5608 23.499C42.1708 23.689 41.8458 23.894 41.5858 24.114C41.4958 24.054 41.4008 23.964 41.3008 23.844C41.2108 23.724 41.1258 23.594 41.0458 23.454C40.9658 23.304 40.8958 23.154 40.8358 23.004C40.7758 22.854 40.7408 22.719 40.7308 22.599C41.0308 22.399 41.3958 22.214 41.8258 22.044C42.2658 21.874 42.7308 21.729 43.2208 21.609C43.7108 21.479 44.2108 21.379 44.7208 21.309C45.2308 21.239 45.7058 21.204 46.1458 21.204C47.3458 21.204 48.2758 21.454 48.9358 21.954C49.5958 22.444 49.9258 23.119 49.9258 23.979ZM46.2658 22.719C46.1958 22.809 46.0858 22.989 45.9358 23.259C45.7858 23.529 45.6108 23.854 45.4108 24.234C45.2208 24.604 45.0158 25.009 44.7958 25.449C44.5858 25.889 44.3808 26.324 44.1808 26.754C44.9308 26.754 45.6208 26.684 46.2508 26.544C46.8808 26.404 47.4258 26.209 47.8858 25.959C48.3458 25.699 48.7008 25.399 48.9508 25.059C49.2108 24.709 49.3408 24.324 49.3408 23.904C49.3408 23.404 49.1608 23.024 48.8008 22.764C48.4408 22.494 47.8858 22.359 47.1358 22.359C46.9658 22.359 46.7958 22.369 46.6258 22.389C46.4558 22.399 46.2758 22.414 46.0858 22.434L46.2658 22.719ZM54.777 26.034C54.737 26.654 54.627 27.189 54.447 27.639C54.267 28.079 54.007 28.469 53.667 28.809C53.337 29.139 52.932 29.439 52.452 29.709C51.972 29.979 51.412 30.239 50.772 30.489C50.772 30.549 50.767 30.614 50.757 30.684C50.757 30.744 50.757 30.809 50.757 30.879C50.757 31.009 50.767 31.144 50.787 31.284C50.807 31.424 50.842 31.554 50.892 31.674C50.942 31.794 51.012 31.894 51.102 31.974C51.192 32.044 51.307 32.079 51.447 32.079C51.717 32.079 51.982 32.019 52.242 31.899C52.502 31.779 52.747 31.634 52.977 31.464C53.217 31.284 53.437 31.094 53.637 30.894C53.847 30.684 54.032 30.494 54.192 30.324C54.292 30.414 54.377 30.499 54.447 30.579C53.997 31.179 53.502 31.679 52.962 32.079C52.432 32.469 51.927 32.719 51.447 32.829C50.757 32.749 50.217 32.499 49.827 32.079C49.447 31.649 49.257 31.134 49.257 30.534C49.257 30.124 49.312 29.709 49.422 29.289C49.542 28.859 49.702 28.449 49.902 28.059C50.112 27.659 50.352 27.284 50.622 26.934C50.902 26.584 51.197 26.279 51.507 26.019C51.827 25.759 52.152 25.554 52.482 25.404C52.822 25.254 53.157 25.179 53.487 25.179C53.947 25.239 54.377 25.524 54.777 26.034ZM53.742 26.529C53.472 26.569 53.192 26.679 52.902 26.859C52.612 27.039 52.337 27.279 52.077 27.579C51.827 27.879 51.597 28.229 51.387 28.629C51.177 29.029 51.012 29.459 50.892 29.919C51.692 29.519 52.357 29.029 52.887 28.449C53.417 27.859 53.702 27.219 53.742 26.529ZM55.5615 29.604C55.5615 29.034 55.6765 28.484 55.9065 27.954C56.1465 27.414 56.4565 26.939 56.8365 26.529C57.2265 26.109 57.6665 25.774 58.1565 25.524C58.6565 25.264 59.1715 25.134 59.7015 25.134C60.2215 25.134 60.6215 25.264 60.9015 25.524C61.1815 25.784 61.3215 26.154 61.3215 26.634C61.3215 26.864 61.2865 27.089 61.2165 27.309C61.1565 27.519 61.0715 27.709 60.9615 27.879C60.8615 28.049 60.7415 28.189 60.6015 28.299C60.4615 28.399 60.3215 28.449 60.1815 28.449C60.0615 28.449 59.9365 28.414 59.8065 28.344C59.6865 28.264 59.5865 28.164 59.5065 28.044C60.1765 27.434 60.5115 26.879 60.5115 26.379C60.5115 26.089 60.3965 25.944 60.1665 25.944C59.9665 25.944 59.7165 26.039 59.4165 26.229C59.1165 26.419 58.8265 26.669 58.5465 26.979C58.1165 27.459 57.7865 27.994 57.5565 28.584C57.3365 29.164 57.2265 29.774 57.2265 30.414C57.2265 31.224 57.4065 31.709 57.7665 31.869C57.9165 31.849 58.0915 31.804 58.2915 31.734C58.4915 31.664 58.7065 31.574 58.9365 31.464C59.1665 31.344 59.4015 31.209 59.6415 31.059C59.8915 30.909 60.1315 30.749 60.3615 30.579C60.4015 30.609 60.4365 30.654 60.4665 30.714C60.4965 30.774 60.5115 30.829 60.5115 30.879C60.3415 31.089 60.1465 31.294 59.9265 31.494C59.7065 31.694 59.4765 31.879 59.2365 32.049C58.9965 32.209 58.7615 32.344 58.5315 32.454C58.3115 32.574 58.1165 32.649 57.9465 32.679C57.6165 32.649 57.3065 32.544 57.0165 32.364C56.7265 32.194 56.4715 31.969 56.2515 31.689C56.0415 31.409 55.8715 31.089 55.7415 30.729C55.6215 30.369 55.5615 29.994 55.5615 29.604ZM61.4103 31.944C61.4603 31.654 61.5453 31.274 61.6653 30.804C61.7953 30.324 61.9453 29.819 62.1153 29.289C62.2853 28.749 62.4653 28.209 62.6553 27.669C62.8453 27.129 63.0303 26.644 63.2103 26.214C63.3403 25.904 63.4553 25.664 63.5553 25.494C63.6553 25.314 63.7653 25.164 63.8853 25.044C64.0253 25.064 64.1703 25.099 64.3203 25.149C64.4703 25.199 64.6153 25.259 64.7553 25.329C64.8953 25.399 65.0203 25.474 65.1303 25.554C65.2403 25.624 65.3253 25.694 65.3853 25.764C65.1153 26.084 64.8753 26.449 64.6653 26.859C64.4653 27.269 64.2603 27.794 64.0503 28.434C64.5903 27.954 65.0653 27.494 65.4753 27.054C65.8953 26.614 66.2853 26.124 66.6453 25.584C66.7053 25.534 66.8103 25.509 66.9603 25.509C67.1003 25.509 67.2353 25.534 67.3653 25.584C67.4953 25.624 67.5853 25.684 67.6353 25.764C67.4553 26.244 67.3653 26.719 67.3653 27.189C67.3653 27.629 67.4303 27.959 67.5603 28.179C67.5503 28.239 67.4803 28.354 67.3503 28.524C67.2303 28.694 67.0953 28.854 66.9453 29.004C66.6753 28.864 66.4353 28.674 66.2253 28.434C66.0153 28.184 65.8603 27.914 65.7603 27.624C65.2903 27.954 64.8903 28.279 64.5603 28.599C64.2303 28.909 63.9453 29.259 63.7053 29.649C63.4753 30.029 63.2753 30.469 63.1053 30.969C62.9453 31.469 62.7903 32.064 62.6403 32.754C62.5503 32.744 62.4403 32.709 62.3103 32.649C62.1903 32.599 62.0653 32.534 61.9353 32.454C61.8153 32.374 61.7053 32.289 61.6053 32.199C61.5053 32.109 61.4403 32.024 61.4103 31.944ZM71.9001 31.914C71.7101 31.754 71.5801 31.554 71.5101 31.314C71.4501 31.074 71.4201 30.869 71.4201 30.699C71.4201 30.489 71.4451 30.309 71.4951 30.159C71.4551 30.159 71.3651 30.239 71.2251 30.399C71.0851 30.559 70.9301 30.749 70.7601 30.969C70.6001 31.189 70.4401 31.404 70.2801 31.614C70.1201 31.824 70.0001 31.979 69.9201 32.079C69.7901 32.219 69.6651 32.329 69.5451 32.409C69.4351 32.489 69.3451 32.534 69.2751 32.544C69.1151 32.534 68.9451 32.499 68.7651 32.439C68.5951 32.389 68.4301 32.314 68.2701 32.214C68.1201 32.114 67.9851 31.994 67.8651 31.854C67.7551 31.714 67.6801 31.554 67.6401 31.374C67.6401 31.094 67.6451 30.864 67.6551 30.684C67.6751 30.504 67.7101 30.309 67.7601 30.099C67.8501 29.719 67.9801 29.289 68.1501 28.809C68.3301 28.329 68.5351 27.859 68.7651 27.399C68.9951 26.929 69.2501 26.494 69.5301 26.094C69.8201 25.684 70.1251 25.364 70.4451 25.134C70.5351 25.134 70.6401 25.144 70.7601 25.164C70.8801 25.174 71.0001 25.199 71.1201 25.239C71.2501 25.279 71.3701 25.329 71.4801 25.389C71.6001 25.439 71.7001 25.509 71.7801 25.599C71.6901 25.699 71.4601 26.034 71.0901 26.604C70.7301 27.174 70.3251 27.994 69.8751 29.064C69.8251 29.174 69.7651 29.334 69.6951 29.544C69.6251 29.754 69.5551 29.974 69.4851 30.204C69.4151 30.434 69.3551 30.659 69.3051 30.879C69.2651 31.099 69.2451 31.274 69.2451 31.404C69.2451 31.484 69.2551 31.544 69.2751 31.584C69.3051 31.624 69.3301 31.654 69.3501 31.674C69.5001 31.614 69.6901 31.449 69.9201 31.179C70.1501 30.909 70.4701 30.494 70.8801 29.934C70.9801 29.794 71.0951 29.634 71.2251 29.454C71.3651 29.274 71.5051 29.084 71.6451 28.884C71.7851 28.674 71.9151 28.459 72.0351 28.239C72.1651 28.019 72.2701 27.799 72.3501 27.579C72.3901 27.459 72.4401 27.319 72.5001 27.159C72.5701 26.989 72.6501 26.814 72.7401 26.634C72.8401 26.454 72.9501 26.274 73.0701 26.094C73.2001 25.904 73.3501 25.729 73.5201 25.569C73.6501 25.569 73.7901 25.584 73.9401 25.614C74.0901 25.644 74.2301 25.684 74.3601 25.734C74.5001 25.774 74.6201 25.824 74.7201 25.884C74.8201 25.934 74.8951 25.989 74.9451 26.049C74.7651 26.489 74.5651 26.924 74.3451 27.354C74.1251 27.784 73.9201 28.209 73.7301 28.629C73.5401 29.039 73.3801 29.449 73.2501 29.859C73.1201 30.269 73.0551 30.669 73.0551 31.059C73.0551 31.269 73.0701 31.454 73.1001 31.614C73.1401 31.764 73.1801 31.894 73.2201 32.004C73.2601 32.104 73.2951 32.189 73.3251 32.259C73.3651 32.329 73.3851 32.389 73.3851 32.439C73.3851 32.449 73.3751 32.464 73.3551 32.484C73.3451 32.494 73.3351 32.499 73.3251 32.499C73.2551 32.499 73.1651 32.484 73.0551 32.454C72.9451 32.424 72.8201 32.379 72.6801 32.319C72.5501 32.269 72.4151 32.209 72.2751 32.139C72.1451 32.069 72.0201 31.994 71.9001 31.914ZM75.174 31.239C75.174 31.149 75.179 31.039 75.189 30.909C75.209 30.769 75.239 30.589 75.279 30.369C75.319 30.139 75.369 29.864 75.429 29.544C75.499 29.224 75.584 28.839 75.684 28.389C75.704 28.289 75.749 28.129 75.819 27.909C75.889 27.689 75.979 27.459 76.089 27.219C76.209 26.969 76.349 26.729 76.509 26.499C76.679 26.269 76.879 26.099 77.109 25.989C77.279 26.029 77.504 26.134 77.784 26.304C78.064 26.464 78.304 26.689 78.504 26.979C78.274 27.239 78.079 27.499 77.919 27.759C77.769 28.019 77.629 28.289 77.499 28.569C77.379 28.849 77.264 29.139 77.154 29.439C77.054 29.739 76.939 30.054 76.809 30.384C76.699 30.664 76.599 30.954 76.509 31.254C76.419 31.544 76.369 31.799 76.359 32.019C76.359 32.199 76.354 32.324 76.344 32.394C76.344 32.474 76.319 32.514 76.269 32.514C76.229 32.514 76.149 32.489 76.029 32.439C75.909 32.389 75.784 32.314 75.654 32.214C75.534 32.104 75.424 31.969 75.324 31.809C75.224 31.649 75.174 31.459 75.174 31.239ZM78.039 24.729C78.039 24.669 78.054 24.579 78.084 24.459C78.034 24.409 77.989 24.334 77.949 24.234C77.919 24.134 77.904 24.044 77.904 23.964C77.904 23.874 77.914 23.754 77.934 23.604C77.964 23.444 77.999 23.274 78.039 23.094C78.079 22.914 78.129 22.729 78.189 22.539C78.249 22.339 78.309 22.159 78.369 21.999C78.489 21.999 78.634 22.034 78.804 22.104C78.984 22.164 79.164 22.249 79.344 22.359C79.524 22.459 79.689 22.574 79.839 22.704C79.989 22.824 80.104 22.939 80.184 23.049C80.074 23.159 79.929 23.314 79.749 23.514C79.569 23.704 79.394 23.909 79.224 24.129C79.054 24.339 78.899 24.539 78.759 24.729C78.619 24.919 78.529 25.054 78.489 25.134C78.369 25.114 78.264 25.064 78.174 24.984C78.084 24.894 78.039 24.809 78.039 24.729ZM79.4864 26.499C79.4364 26.439 79.3914 26.314 79.3514 26.124C79.3114 25.924 79.2914 25.754 79.2914 25.614C79.5514 25.634 79.8014 25.654 80.0414 25.674C80.2814 25.684 80.5014 25.694 80.7014 25.704C80.8514 25.404 81.0114 25.109 81.1814 24.819C81.3614 24.519 81.5314 24.249 81.6914 24.009C81.8614 23.759 82.0164 23.549 82.1564 23.379C82.3064 23.209 82.4214 23.099 82.5014 23.049C82.6014 23.049 82.7264 23.069 82.8764 23.109C83.0364 23.139 83.1964 23.184 83.3564 23.244C83.5164 23.294 83.6614 23.349 83.7914 23.409C83.9214 23.469 84.0114 23.529 84.0614 23.589C83.7614 23.969 83.5014 24.324 83.2814 24.654C83.0714 24.974 82.8414 25.344 82.5914 25.764C82.7914 25.764 82.9914 25.759 83.1914 25.749C83.4014 25.739 83.6114 25.724 83.8214 25.704C83.8714 25.754 83.9114 25.819 83.9414 25.899C83.9714 25.969 83.9864 26.044 83.9864 26.124C83.4964 26.304 82.9014 26.404 82.2014 26.424C81.9514 26.904 81.7264 27.384 81.5264 27.864C81.3364 28.334 81.1714 28.789 81.0314 29.229C80.9014 29.669 80.7964 30.084 80.7164 30.474C80.6464 30.864 80.6114 31.214 80.6114 31.524C80.6114 31.964 80.7764 32.209 81.1064 32.259C81.4064 32.219 81.6914 32.144 81.9614 32.034C82.2314 31.924 82.4714 31.784 82.6814 31.614C82.7414 31.704 82.7764 31.779 82.7864 31.839C82.7264 31.929 82.6214 32.034 82.4714 32.154C82.3314 32.274 82.1764 32.389 82.0064 32.499C81.8364 32.619 81.6714 32.719 81.5114 32.799C81.3514 32.879 81.2314 32.924 81.1514 32.934C80.9014 32.924 80.6514 32.869 80.4014 32.769C80.1514 32.669 79.9214 32.544 79.7114 32.394C79.5114 32.244 79.3464 32.079 79.2164 31.899C79.0864 31.709 79.0214 31.524 79.0214 31.344C79.0214 31.104 79.0514 30.804 79.1114 30.444C79.1814 30.074 79.2764 29.674 79.3964 29.244C79.5164 28.814 79.6564 28.364 79.8164 27.894C79.9764 27.424 80.1514 26.959 80.3414 26.499H79.4864ZM92.5448 27.639C92.3848 27.649 92.1898 27.754 91.9598 27.954C91.7298 28.144 91.4798 28.394 91.2098 28.704C90.9498 29.004 90.6748 29.339 90.3848 29.709C90.1048 30.079 89.8298 30.449 89.5598 30.819C89.2998 31.179 89.0548 31.519 88.8248 31.839C88.5948 32.159 88.3998 32.414 88.2398 32.604C88.0198 32.514 87.8298 32.384 87.6698 32.214C87.5098 32.034 87.3948 31.814 87.3248 31.554C87.3748 31.244 87.4448 30.924 87.5348 30.594C87.6248 30.254 87.7398 29.904 87.8798 29.544C88.0298 29.184 88.2098 28.809 88.4198 28.419C88.6398 28.019 88.9048 27.599 89.2148 27.159C89.0648 27.169 88.8598 27.279 88.5998 27.489C88.3398 27.689 88.0598 27.954 87.7598 28.284C87.4598 28.604 87.1498 28.969 86.8298 29.379C86.5098 29.779 86.2098 30.174 85.9298 30.564C85.5598 31.084 85.2498 31.539 84.9998 31.929C84.7598 32.319 84.5848 32.549 84.4748 32.619C84.2148 32.429 84.0348 32.224 83.9348 32.004C83.8348 31.784 83.7598 31.539 83.7098 31.269C83.7198 31.029 83.7548 30.729 83.8148 30.369C83.8848 30.009 83.9798 29.639 84.0998 29.259C84.3298 28.529 84.6248 27.804 84.9848 27.084C85.3548 26.364 85.7098 25.704 86.0498 25.104C86.3298 25.164 86.5798 25.259 86.7998 25.389C87.0298 25.519 87.2698 25.709 87.5198 25.959C87.4198 26.269 87.2648 26.599 87.0548 26.949C86.8448 27.289 86.6248 27.649 86.3948 28.029C86.1648 28.409 85.9548 28.799 85.7648 29.199C85.5748 29.599 85.4498 30.004 85.3898 30.414C85.6698 30.014 85.9998 29.554 86.3798 29.034C86.7698 28.514 87.1648 28.024 87.5648 27.564C87.9748 27.104 88.3798 26.714 88.7798 26.394C89.1798 26.074 89.5398 25.914 89.8598 25.914C89.9798 25.914 90.1098 25.934 90.2498 25.974C90.3898 26.014 90.5198 26.064 90.6398 26.124C90.7598 26.184 90.8598 26.244 90.9398 26.304C91.0198 26.354 91.0648 26.394 91.0748 26.424C91.0248 26.624 90.9048 26.899 90.7148 27.249C90.5348 27.589 90.3398 27.949 90.1298 28.329C89.9198 28.709 89.7248 29.079 89.5448 29.439C89.3648 29.789 89.2598 30.069 89.2298 30.279C89.7198 29.609 90.1798 29.004 90.6098 28.464C91.0398 27.914 91.4448 27.444 91.8248 27.054C92.2048 26.664 92.5548 26.364 92.8748 26.154C93.2048 25.944 93.5148 25.839 93.8048 25.839C94.0048 25.839 94.1898 25.894 94.3598 26.004C94.5398 26.104 94.6648 26.254 94.7348 26.454C94.6448 26.754 94.4948 27.114 94.2848 27.534C94.0848 27.954 93.8798 28.399 93.6698 28.869C93.4598 29.329 93.2698 29.784 93.0998 30.234C92.9398 30.684 92.8598 31.089 92.8598 31.449C92.8598 31.659 92.8898 31.799 92.9498 31.869C93.0098 31.929 93.0948 31.959 93.2048 31.959C93.3248 31.959 93.4348 31.939 93.5348 31.899C93.6448 31.849 93.7248 31.824 93.7748 31.824C93.8348 31.864 93.8698 31.914 93.8798 31.974C93.8898 32.034 93.8948 32.089 93.8948 32.139C93.6948 32.299 93.4898 32.429 93.2798 32.529C93.0698 32.639 92.8348 32.694 92.5748 32.694C92.3348 32.694 92.1348 32.654 91.9748 32.574C91.8248 32.494 91.6998 32.384 91.5998 32.244C91.4998 32.104 91.4298 31.944 91.3898 31.764C91.3498 31.584 91.3298 31.389 91.3298 31.179C91.3298 30.839 91.3748 30.504 91.4648 30.174C91.5548 29.834 91.6598 29.514 91.7798 29.214C91.9098 28.904 92.0448 28.619 92.1848 28.359C92.3248 28.089 92.4448 27.849 92.5448 27.639ZM100.715 26.034C100.675 26.654 100.565 27.189 100.385 27.639C100.205 28.079 99.9445 28.469 99.6045 28.809C99.2745 29.139 98.8695 29.439 98.3895 29.709C97.9095 29.979 97.3495 30.239 96.7095 30.489C96.7095 30.549 96.7045 30.614 96.6945 30.684C96.6945 30.744 96.6945 30.809 96.6945 30.879C96.6945 31.009 96.7045 31.144 96.7245 31.284C96.7445 31.424 96.7795 31.554 96.8295 31.674C96.8795 31.794 96.9495 31.894 97.0395 31.974C97.1295 32.044 97.2445 32.079 97.3845 32.079C97.6545 32.079 97.9195 32.019 98.1795 31.899C98.4395 31.779 98.6845 31.634 98.9145 31.464C99.1545 31.284 99.3745 31.094 99.5745 30.894C99.7845 30.684 99.9695 30.494 100.13 30.324C100.23 30.414 100.315 30.499 100.385 30.579C99.9345 31.179 99.4395 31.679 98.8995 32.079C98.3695 32.469 97.8645 32.719 97.3845 32.829C96.6945 32.749 96.1545 32.499 95.7645 32.079C95.3845 31.649 95.1945 31.134 95.1945 30.534C95.1945 30.124 95.2495 29.709 95.3595 29.289C95.4795 28.859 95.6395 28.449 95.8395 28.059C96.0495 27.659 96.2895 27.284 96.5595 26.934C96.8395 26.584 97.1345 26.279 97.4445 26.019C97.7645 25.759 98.0895 25.554 98.4195 25.404C98.7595 25.254 99.0945 25.179 99.4245 25.179C99.8845 25.239 100.315 25.524 100.715 26.034ZM99.6795 26.529C99.4095 26.569 99.1295 26.679 98.8395 26.859C98.5495 27.039 98.2745 27.279 98.0145 27.579C97.7645 27.879 97.5345 28.229 97.3245 28.629C97.1145 29.029 96.9495 29.459 96.8295 29.919C97.6295 29.519 98.2945 29.029 98.8245 28.449C99.3545 27.859 99.6395 27.219 99.6795 26.529ZM103.839 24.969C104.099 25.049 104.344 25.229 104.574 25.509C104.804 25.779 104.974 26.079 105.084 26.409C104.974 26.679 104.804 27.004 104.574 27.384C104.344 27.764 104.114 28.154 103.884 28.554C103.654 28.944 103.444 29.319 103.254 29.679C103.074 30.029 102.969 30.319 102.939 30.549C103.099 30.379 103.274 30.184 103.464 29.964C103.664 29.734 103.854 29.509 104.034 29.289C104.224 29.059 104.399 28.854 104.559 28.674C104.719 28.484 104.844 28.344 104.934 28.254C105.124 28.054 105.349 27.824 105.609 27.564C105.869 27.294 106.139 27.044 106.419 26.814C106.709 26.574 106.999 26.374 107.289 26.214C107.579 26.044 107.844 25.959 108.084 25.959C108.344 25.959 108.559 26.049 108.729 26.229C108.909 26.399 109.049 26.579 109.149 26.769C109.149 26.789 109.109 26.819 109.029 26.859C108.959 26.889 108.854 26.984 108.714 27.144C108.574 27.324 108.414 27.574 108.234 27.894C108.064 28.204 107.894 28.544 107.724 28.914C107.564 29.274 107.429 29.644 107.319 30.024C107.209 30.404 107.154 30.749 107.154 31.059C107.154 31.309 107.184 31.469 107.244 31.539C107.314 31.609 107.409 31.644 107.529 31.644C107.639 31.644 107.754 31.619 107.874 31.569C107.994 31.519 108.089 31.494 108.159 31.494C108.199 31.514 108.229 31.559 108.249 31.629C108.279 31.689 108.294 31.744 108.294 31.794C108.214 31.864 108.119 31.934 108.009 32.004C107.899 32.074 107.784 32.139 107.664 32.199C107.544 32.259 107.424 32.309 107.304 32.349C107.194 32.389 107.094 32.409 107.004 32.409C106.714 32.409 106.474 32.364 106.284 32.274C106.104 32.194 105.959 32.084 105.849 31.944C105.749 31.804 105.679 31.639 105.639 31.449C105.599 31.249 105.579 31.039 105.579 30.819C105.579 30.699 105.589 30.564 105.609 30.414C105.629 30.264 105.669 30.089 105.729 29.889C105.789 29.679 105.874 29.434 105.984 29.154C106.094 28.864 106.234 28.519 106.404 28.119C106.384 28.119 106.249 28.189 105.999 28.329C105.749 28.469 105.479 28.684 105.189 28.974C104.719 29.424 104.294 29.869 103.914 30.309C103.544 30.749 103.164 31.239 102.774 31.779C102.554 32.089 102.359 32.349 102.189 32.559C102.029 32.779 101.889 32.924 101.769 32.994C101.559 32.874 101.404 32.704 101.304 32.484C101.204 32.274 101.129 32.054 101.079 31.824C101.079 31.634 101.104 31.394 101.154 31.104C101.214 30.814 101.289 30.494 101.379 30.144C101.479 29.784 101.599 29.409 101.739 29.019C101.879 28.629 102.034 28.239 102.204 27.849C102.584 26.969 102.929 26.279 103.239 25.779C103.559 25.279 103.759 25.009 103.839 24.969ZM110.395 26.499C110.345 26.439 110.3 26.314 110.26 26.124C110.22 25.924 110.2 25.754 110.2 25.614C110.46 25.634 110.71 25.654 110.95 25.674C111.19 25.684 111.41 25.694 111.61 25.704C111.76 25.404 111.92 25.109 112.09 24.819C112.27 24.519 112.44 24.249 112.6 24.009C112.77 23.759 112.925 23.549 113.065 23.379C113.215 23.209 113.33 23.099 113.41 23.049C113.51 23.049 113.635 23.069 113.785 23.109C113.945 23.139 114.105 23.184 114.265 23.244C114.425 23.294 114.57 23.349 114.7 23.409C114.83 23.469 114.92 23.529 114.97 23.589C114.67 23.969 114.41 24.324 114.19 24.654C113.98 24.974 113.75 25.344 113.5 25.764C113.7 25.764 113.9 25.759 114.1 25.749C114.31 25.739 114.52 25.724 114.73 25.704C114.78 25.754 114.82 25.819 114.85 25.899C114.88 25.969 114.895 26.044 114.895 26.124C114.405 26.304 113.81 26.404 113.11 26.424C112.86 26.904 112.635 27.384 112.435 27.864C112.245 28.334 112.08 28.789 111.94 29.229C111.81 29.669 111.705 30.084 111.625 30.474C111.555 30.864 111.52 31.214 111.52 31.524C111.52 31.964 111.685 32.209 112.015 32.259C112.315 32.219 112.6 32.144 112.87 32.034C113.14 31.924 113.38 31.784 113.59 31.614C113.65 31.704 113.685 31.779 113.695 31.839C113.635 31.929 113.53 32.034 113.38 32.154C113.24 32.274 113.085 32.389 112.915 32.499C112.745 32.619 112.58 32.719 112.42 32.799C112.26 32.879 112.14 32.924 112.06 32.934C111.81 32.924 111.56 32.869 111.31 32.769C111.06 32.669 110.83 32.544 110.62 32.394C110.42 32.244 110.255 32.079 110.125 31.899C109.995 31.709 109.93 31.524 109.93 31.344C109.93 31.104 109.96 30.804 110.02 30.444C110.09 30.074 110.185 29.674 110.305 29.244C110.425 28.814 110.565 28.364 110.725 27.894C110.885 27.424 111.06 26.959 111.25 26.499H110.395Z" fill="#EB7215"/>
<defs>
<linearGradient id="paint0_linear_812_4" x1="-0.504" y1="10.048" x2="115.496" y2="10.048" gradientUnits="userSpaceOnUse">
<stop stop-color="#EB7215"/>
<stop offset="1" stop-color="#FAC748"/>
</linearGradient>
</defs>
</svg>
